G04*
G04 #@! TF.GenerationSoftware,Altium Limited,Altium Designer,18.1.9 (240)*
G04*
G04 Layer_Color=128*
%FSLAX24Y24*%
%MOIN*%
G70*
G01*
G75*
%ADD58C,0.0020*%
D58*
X1352Y2337D02*
X1549D01*
X1450Y2239D02*
Y2436D01*
X1352Y763D02*
X1549D01*
X1450Y664D02*
Y861D01*
X486Y448D02*
X643D01*
X564Y369D02*
Y526D01*
X525Y2652D02*
X682D01*
X604Y2574D02*
Y2731D01*
X9153Y4150D02*
X9547D01*
X9350Y3953D02*
Y4347D01*
X9153Y9268D02*
X9547D01*
X9350Y9071D02*
Y9465D01*
X2332Y7550D02*
X2568D01*
X2450Y7432D02*
Y7668D01*
X2332Y8534D02*
X2568D01*
X2450Y8416D02*
Y8652D01*
X2332Y9518D02*
X2568D01*
X2450Y9400D02*
Y9637D01*
X9085Y650D02*
X9415D01*
X9250Y485D02*
Y815D01*
X9085Y1650D02*
X9415D01*
X9250Y1485D02*
Y1815D01*
X435Y4688D02*
X765D01*
X600Y4523D02*
Y4853D01*
X435Y4688D02*
X765D01*
X600Y4523D02*
Y4853D01*
X435Y5475D02*
X765D01*
X600Y5310D02*
Y5640D01*
X435Y6263D02*
X765D01*
X600Y6098D02*
Y6428D01*
X435Y7050D02*
X765D01*
X600Y6885D02*
Y7215D01*
X435Y7837D02*
X765D01*
X600Y7672D02*
Y8002D01*
X435Y8625D02*
X765D01*
X600Y8460D02*
Y8790D01*
X435Y9412D02*
X765D01*
X600Y9247D02*
Y9577D01*
X191Y3750D02*
X309D01*
X250Y3691D02*
Y3809D01*
X1991Y4800D02*
X2109D01*
X2050Y4741D02*
Y4859D01*
X5341Y5150D02*
X5459D01*
X5400Y5091D02*
Y5209D01*
X5291Y6700D02*
X5409D01*
X5350Y6641D02*
Y6759D01*
X2341Y2600D02*
X2459D01*
X2400Y2541D02*
Y2659D01*
X4441Y3850D02*
X4559D01*
X4500Y3791D02*
Y3909D01*
X3691Y4600D02*
X3809D01*
X3750Y4541D02*
Y4659D01*
X6890Y6950D02*
X7010D01*
X6950Y6890D02*
Y7010D01*
X4441Y7350D02*
X4559D01*
X4500Y7291D02*
Y7409D01*
X7490Y2150D02*
X7610D01*
X7550Y2090D02*
Y2210D01*
X6491Y2574D02*
X6609D01*
X6550Y2515D02*
Y2633D01*
X6291Y1143D02*
X6409D01*
X6350Y1083D02*
Y1202D01*
X3641Y750D02*
X3759D01*
X3700Y691D02*
Y809D01*
X2191Y8800D02*
X2309D01*
X2250Y8741D02*
Y8859D01*
X3491Y2400D02*
X3609D01*
X3550Y2341D02*
Y2459D01*
X2390Y150D02*
X2510D01*
X2450Y90D02*
Y210D01*
X9590Y3250D02*
X9710D01*
X9650Y3190D02*
Y3310D01*
X8940Y3150D02*
X9060D01*
X9000Y3090D02*
Y3210D01*
X5790Y5500D02*
X5910D01*
X5850Y5440D02*
Y5560D01*
X4640Y9550D02*
X4760D01*
X4700Y9490D02*
Y9610D01*
X7159Y8850D02*
X7279D01*
X7219Y8790D02*
Y8910D01*
X5790Y9650D02*
X5910D01*
X5850Y9590D02*
Y9710D01*
X2740Y9050D02*
X2860D01*
X2800Y8990D02*
Y9110D01*
X4640Y8050D02*
X4760D01*
X4700Y7990D02*
Y8110D01*
X4390Y2200D02*
X4510D01*
X4450Y2140D02*
Y2260D01*
X9740Y2350D02*
X9860D01*
X9800Y2290D02*
Y2410D01*
X8790Y1100D02*
X8910D01*
X8850Y1040D02*
Y1160D01*
X190Y1600D02*
X310D01*
X250Y1540D02*
Y1660D01*
X8540Y8950D02*
X8660D01*
X8600Y8890D02*
Y9010D01*
X4940Y4550D02*
X5060D01*
X5000Y4490D02*
Y4610D01*
X6640Y300D02*
X6760D01*
X6700Y240D02*
Y360D01*
X5790Y5050D02*
X5910D01*
X5850Y4990D02*
Y5110D01*
X1890Y9600D02*
X2010D01*
X1950Y9540D02*
Y9660D01*
X7190Y9650D02*
X7310D01*
X7250Y9590D02*
Y9710D01*
X9340Y2850D02*
X9460D01*
X9400Y2790D02*
Y2910D01*
X3491Y1700D02*
X3609D01*
X3550Y1641D02*
Y1759D01*
M02*
