G04*
G04 #@! TF.GenerationSoftware,Altium Limited,Altium Designer,18.1.9 (240)*
G04*
G04 Layer_Color=2752767*
%FSLAX24Y24*%
%MOIN*%
G70*
G01*
G75*
%ADD58C,0.0020*%
%ADD59C,0.0027*%
D58*
X1370Y2257D02*
Y2417D01*
X1530D01*
Y2257D01*
X1370D01*
Y683D02*
Y843D01*
X1530D01*
Y683D01*
X1370D01*
X9350Y4070D02*
X9270Y4230D01*
X9430D01*
X9350Y4070D01*
Y9188D02*
X9270Y9348D01*
X9430D01*
X9350Y9188D01*
X2450Y7470D02*
X2490Y7510D01*
X2530D01*
X2490Y7550D01*
X2530Y7590D01*
X2490D01*
X2450Y7630D01*
X2410Y7590D01*
X2370D01*
X2410Y7550D01*
X2370Y7510D01*
X2410D01*
X2450Y7470D01*
Y8454D02*
X2490Y8494D01*
X2530D01*
X2490Y8534D01*
X2530Y8574D01*
X2490D01*
X2450Y8614D01*
X2410Y8574D01*
X2370D01*
X2410Y8534D01*
X2370Y8494D01*
X2410D01*
X2450Y8454D01*
Y9438D02*
X2490Y9478D01*
X2530D01*
X2490Y9518D01*
X2530Y9559D01*
X2490D01*
X2450Y9599D01*
X2410Y9559D01*
X2370D01*
X2410Y9518D01*
X2370Y9478D01*
X2410D01*
X2450Y9438D01*
X9170Y570D02*
X9210Y650D01*
X9170Y730D01*
X9250Y690D01*
X9330Y730D01*
X9290Y650D01*
X9330Y570D01*
X9250Y610D01*
X9170Y570D01*
Y1570D02*
X9210Y1650D01*
X9170Y1730D01*
X9250Y1690D01*
X9330Y1730D01*
X9290Y1650D01*
X9330Y1570D01*
X9250Y1610D01*
X9170Y1570D01*
X520Y4608D02*
X560Y4688D01*
X520Y4768D01*
X600Y4728D01*
X680Y4768D01*
X640Y4688D01*
X680Y4608D01*
X600Y4648D01*
X520Y4608D01*
X560Y4688D01*
X520Y4768D01*
X600Y4728D01*
X680Y4768D01*
X640Y4688D01*
X680Y4608D01*
X600Y4648D01*
X520Y4608D01*
Y5395D02*
X560Y5475D01*
X520Y5555D01*
X600Y5515D01*
X680Y5555D01*
X640Y5475D01*
X680Y5395D01*
X600Y5435D01*
X520Y5395D01*
Y6183D02*
X560Y6263D01*
X520Y6343D01*
X600Y6303D01*
X680Y6343D01*
X640Y6263D01*
X680Y6183D01*
X600Y6223D01*
X520Y6183D01*
Y6970D02*
X560Y7050D01*
X520Y7130D01*
X600Y7090D01*
X680Y7130D01*
X640Y7050D01*
X680Y6970D01*
X600Y7010D01*
X520Y6970D01*
Y7757D02*
X560Y7837D01*
X520Y7917D01*
X600Y7877D01*
X680Y7917D01*
X640Y7837D01*
X680Y7757D01*
X600Y7797D01*
X520Y7757D01*
Y8545D02*
X560Y8625D01*
X520Y8705D01*
X600Y8665D01*
X680Y8705D01*
X640Y8625D01*
X680Y8545D01*
X600Y8585D01*
X520Y8545D01*
Y9332D02*
X560Y9412D01*
X520Y9492D01*
X600Y9452D01*
X680Y9492D01*
X640Y9412D01*
X680Y9332D01*
X600Y9372D01*
X520Y9332D01*
X210Y3710D02*
Y3670D01*
X290D01*
Y3710D01*
X330D01*
Y3790D01*
X290D01*
Y3830D01*
X210D01*
Y3790D01*
X170D01*
Y3710D01*
X210D01*
X2010Y4760D02*
Y4720D01*
X2090D01*
Y4760D01*
X2130D01*
Y4840D01*
X2090D01*
Y4880D01*
X2010D01*
Y4840D01*
X1970D01*
Y4760D01*
X2010D01*
X5360Y5110D02*
Y5070D01*
X5440D01*
Y5110D01*
X5480D01*
Y5190D01*
X5440D01*
Y5230D01*
X5360D01*
Y5190D01*
X5320D01*
Y5110D01*
X5360D01*
X5310Y6660D02*
Y6620D01*
X5390D01*
Y6660D01*
X5430D01*
Y6740D01*
X5390D01*
Y6780D01*
X5310D01*
Y6740D01*
X5270D01*
Y6660D01*
X5310D01*
X2360Y2560D02*
Y2520D01*
X2440D01*
Y2560D01*
X2480D01*
Y2640D01*
X2440D01*
Y2680D01*
X2360D01*
Y2640D01*
X2320D01*
Y2560D01*
X2360D01*
X4460Y3810D02*
Y3770D01*
X4540D01*
Y3810D01*
X4580D01*
Y3890D01*
X4540D01*
Y3930D01*
X4460D01*
Y3890D01*
X4420D01*
Y3810D01*
X4460D01*
X3710Y4560D02*
Y4520D01*
X3790D01*
Y4560D01*
X3830D01*
Y4640D01*
X3790D01*
Y4680D01*
X3710D01*
Y4640D01*
X3670D01*
Y4560D01*
X3710D01*
X6870Y6870D02*
X6910D01*
X6950Y6910D01*
X6990Y6870D01*
X7030D01*
Y6910D01*
X6990Y6950D01*
X7030Y6990D01*
Y7030D01*
X6990D01*
X6950Y6990D01*
X6910Y7030D01*
X6870D01*
Y6990D01*
X6910Y6950D01*
X6870Y6910D01*
Y6870D01*
X4460Y7310D02*
Y7270D01*
X4540D01*
Y7310D01*
X4580D01*
Y7390D01*
X4540D01*
Y7430D01*
X4460D01*
Y7390D01*
X4420D01*
Y7310D01*
X4460D01*
X7470Y2070D02*
X7510D01*
X7550Y2110D01*
X7590Y2070D01*
X7630D01*
Y2110D01*
X7590Y2150D01*
X7630Y2190D01*
Y2230D01*
X7590D01*
X7550Y2190D01*
X7510Y2230D01*
X7470D01*
Y2190D01*
X7510Y2150D01*
X7470Y2110D01*
Y2070D01*
X6510Y2534D02*
Y2494D01*
X6590D01*
Y2534D01*
X6630D01*
Y2614D01*
X6590D01*
Y2654D01*
X6510D01*
Y2614D01*
X6470D01*
Y2534D01*
X6510D01*
X6310Y1103D02*
Y1063D01*
X6390D01*
Y1103D01*
X6430D01*
Y1183D01*
X6390D01*
Y1223D01*
X6310D01*
Y1183D01*
X6270D01*
Y1103D01*
X6310D01*
X3660Y710D02*
Y670D01*
X3740D01*
Y710D01*
X3780D01*
Y790D01*
X3740D01*
Y830D01*
X3660D01*
Y790D01*
X3620D01*
Y710D01*
X3660D01*
X2210Y8760D02*
Y8720D01*
X2290D01*
Y8760D01*
X2330D01*
Y8840D01*
X2290D01*
Y8880D01*
X2210D01*
Y8840D01*
X2170D01*
Y8760D01*
X2210D01*
X3510Y2360D02*
Y2320D01*
X3590D01*
Y2360D01*
X3630D01*
Y2440D01*
X3590D01*
Y2480D01*
X3510D01*
Y2440D01*
X3470D01*
Y2360D01*
X3510D01*
X2370Y70D02*
X2410D01*
X2450Y110D01*
X2490Y70D01*
X2530D01*
Y110D01*
X2490Y150D01*
X2530Y190D01*
Y230D01*
X2490D01*
X2450Y190D01*
X2410Y230D01*
X2370D01*
Y190D01*
X2410Y150D01*
X2370Y110D01*
Y70D01*
X9570Y3170D02*
X9610D01*
X9650Y3210D01*
X9690Y3170D01*
X9730D01*
Y3210D01*
X9690Y3250D01*
X9730Y3290D01*
Y3330D01*
X9690D01*
X9650Y3290D01*
X9610Y3330D01*
X9570D01*
Y3290D01*
X9610Y3250D01*
X9570Y3210D01*
Y3170D01*
X8920Y3070D02*
X8960D01*
X9000Y3110D01*
X9040Y3070D01*
X9080D01*
Y3110D01*
X9040Y3150D01*
X9080Y3190D01*
Y3230D01*
X9040D01*
X9000Y3190D01*
X8960Y3230D01*
X8920D01*
Y3190D01*
X8960Y3150D01*
X8920Y3110D01*
Y3070D01*
X5770Y5420D02*
X5810D01*
X5850Y5460D01*
X5890Y5420D01*
X5930D01*
Y5460D01*
X5890Y5500D01*
X5930Y5540D01*
Y5580D01*
X5890D01*
X5850Y5540D01*
X5810Y5580D01*
X5770D01*
Y5540D01*
X5810Y5500D01*
X5770Y5460D01*
Y5420D01*
X4620Y9470D02*
X4660D01*
X4700Y9510D01*
X4740Y9470D01*
X4780D01*
Y9510D01*
X4740Y9550D01*
X4780Y9590D01*
Y9630D01*
X4740D01*
X4700Y9590D01*
X4660Y9630D01*
X4620D01*
Y9590D01*
X4660Y9550D01*
X4620Y9510D01*
Y9470D01*
X7139Y8770D02*
X7179D01*
X7219Y8810D01*
X7259Y8770D01*
X7299D01*
Y8810D01*
X7259Y8850D01*
X7299Y8890D01*
Y8930D01*
X7259D01*
X7219Y8890D01*
X7179Y8930D01*
X7139D01*
Y8890D01*
X7179Y8850D01*
X7139Y8810D01*
Y8770D01*
X5770Y9570D02*
X5810D01*
X5850Y9610D01*
X5890Y9570D01*
X5930D01*
Y9610D01*
X5890Y9650D01*
X5930Y9690D01*
Y9730D01*
X5890D01*
X5850Y9690D01*
X5810Y9730D01*
X5770D01*
Y9690D01*
X5810Y9650D01*
X5770Y9610D01*
Y9570D01*
X2720Y8970D02*
X2760D01*
X2800Y9010D01*
X2840Y8970D01*
X2880D01*
Y9010D01*
X2840Y9050D01*
X2880Y9090D01*
Y9130D01*
X2840D01*
X2800Y9090D01*
X2760Y9130D01*
X2720D01*
Y9090D01*
X2760Y9050D01*
X2720Y9010D01*
Y8970D01*
X4620Y7970D02*
X4660D01*
X4700Y8010D01*
X4740Y7970D01*
X4780D01*
Y8010D01*
X4740Y8050D01*
X4780Y8090D01*
Y8130D01*
X4740D01*
X4700Y8090D01*
X4660Y8130D01*
X4620D01*
Y8090D01*
X4660Y8050D01*
X4620Y8010D01*
Y7970D01*
X4370Y2120D02*
X4410D01*
X4450Y2160D01*
X4490Y2120D01*
X4530D01*
Y2160D01*
X4490Y2200D01*
X4530Y2240D01*
Y2280D01*
X4490D01*
X4450Y2240D01*
X4410Y2280D01*
X4370D01*
Y2240D01*
X4410Y2200D01*
X4370Y2160D01*
Y2120D01*
X9720Y2270D02*
X9760D01*
X9800Y2310D01*
X9840Y2270D01*
X9880D01*
Y2310D01*
X9840Y2350D01*
X9880Y2390D01*
Y2430D01*
X9840D01*
X9800Y2390D01*
X9760Y2430D01*
X9720D01*
Y2390D01*
X9760Y2350D01*
X9720Y2310D01*
Y2270D01*
X8770Y1020D02*
X8810D01*
X8850Y1060D01*
X8890Y1020D01*
X8930D01*
Y1060D01*
X8890Y1100D01*
X8930Y1140D01*
Y1180D01*
X8890D01*
X8850Y1140D01*
X8810Y1180D01*
X8770D01*
Y1140D01*
X8810Y1100D01*
X8770Y1060D01*
Y1020D01*
X170Y1520D02*
X210D01*
X250Y1560D01*
X290Y1520D01*
X330D01*
Y1560D01*
X290Y1600D01*
X330Y1640D01*
Y1680D01*
X290D01*
X250Y1640D01*
X210Y1680D01*
X170D01*
Y1640D01*
X210Y1600D01*
X170Y1560D01*
Y1520D01*
X8520Y8870D02*
X8560D01*
X8600Y8910D01*
X8640Y8870D01*
X8680D01*
Y8910D01*
X8640Y8950D01*
X8680Y8990D01*
Y9030D01*
X8640D01*
X8600Y8990D01*
X8560Y9030D01*
X8520D01*
Y8990D01*
X8560Y8950D01*
X8520Y8910D01*
Y8870D01*
X4920Y4470D02*
X4960D01*
X5000Y4510D01*
X5040Y4470D01*
X5080D01*
Y4510D01*
X5040Y4550D01*
X5080Y4590D01*
Y4630D01*
X5040D01*
X5000Y4590D01*
X4960Y4630D01*
X4920D01*
Y4590D01*
X4960Y4550D01*
X4920Y4510D01*
Y4470D01*
X6620Y220D02*
X6660D01*
X6700Y260D01*
X6740Y220D01*
X6780D01*
Y260D01*
X6740Y300D01*
X6780Y340D01*
Y380D01*
X6740D01*
X6700Y340D01*
X6660Y380D01*
X6620D01*
Y340D01*
X6660Y300D01*
X6620Y260D01*
Y220D01*
X5770Y4970D02*
X5810D01*
X5850Y5010D01*
X5890Y4970D01*
X5930D01*
Y5010D01*
X5890Y5050D01*
X5930Y5090D01*
Y5130D01*
X5890D01*
X5850Y5090D01*
X5810Y5130D01*
X5770D01*
Y5090D01*
X5810Y5050D01*
X5770Y5010D01*
Y4970D01*
X1870Y9520D02*
X1910D01*
X1950Y9560D01*
X1990Y9520D01*
X2030D01*
Y9560D01*
X1990Y9600D01*
X2030Y9640D01*
Y9680D01*
X1990D01*
X1950Y9640D01*
X1910Y9680D01*
X1870D01*
Y9640D01*
X1910Y9600D01*
X1870Y9560D01*
Y9520D01*
X7170Y9570D02*
X7210D01*
X7250Y9610D01*
X7290Y9570D01*
X7330D01*
Y9610D01*
X7290Y9650D01*
X7330Y9690D01*
Y9730D01*
X7290D01*
X7250Y9690D01*
X7210Y9730D01*
X7170D01*
Y9690D01*
X7210Y9650D01*
X7170Y9610D01*
Y9570D01*
X9320Y2770D02*
X9360D01*
X9400Y2810D01*
X9440Y2770D01*
X9480D01*
Y2810D01*
X9440Y2850D01*
X9480Y2890D01*
Y2930D01*
X9440D01*
X9400Y2890D01*
X9360Y2930D01*
X9320D01*
Y2890D01*
X9360Y2850D01*
X9320Y2810D01*
Y2770D01*
X3510Y1660D02*
Y1620D01*
X3590D01*
Y1660D01*
X3630D01*
Y1740D01*
X3590D01*
Y1780D01*
X3510D01*
Y1740D01*
X3470D01*
Y1660D01*
X3510D01*
D59*
X644Y448D02*
G03*
X644Y448I-80J0D01*
G01*
X684Y2652D02*
G03*
X684Y2652I-80J0D01*
G01*
M02*
