G04*
G04 #@! TF.GenerationSoftware,Altium Limited,Altium Designer,18.1.9 (240)*
G04*
G04 Layer_Physical_Order=1*
G04 Layer_Color=255*
%FSLAX24Y24*%
%MOIN*%
G70*
G01*
G75*
%ADD14C,0.0100*%
%ADD16R,0.0300X0.0300*%
%ADD17R,0.0300X0.0300*%
%ADD18R,0.0630X0.0394*%
%ADD28C,0.0200*%
%ADD29C,0.0197*%
%ADD30C,0.0157*%
%ADD31C,0.0197*%
G04:AMPARAMS|DCode=32|XSize=84.6mil|YSize=31.5mil|CornerRadius=7.9mil|HoleSize=0mil|Usage=FLASHONLY|Rotation=0.000|XOffset=0mil|YOffset=0mil|HoleType=Round|Shape=RoundedRectangle|*
%AMROUNDEDRECTD32*
21,1,0.0846,0.0157,0,0,0.0*
21,1,0.0689,0.0315,0,0,0.0*
1,1,0.0157,0.0344,-0.0079*
1,1,0.0157,-0.0344,-0.0079*
1,1,0.0157,-0.0344,0.0079*
1,1,0.0157,0.0344,0.0079*
%
%ADD32ROUNDEDRECTD32*%
%ADD33C,0.0787*%
%ADD34C,0.0236*%
%ADD35O,0.0787X0.0591*%
%ADD36O,0.0709X0.0512*%
%ADD37C,0.0240*%
G36*
X9809Y9841D02*
X9858Y9808D01*
X9891Y9759D01*
X9903Y9700D01*
X9903Y9700D01*
X9903D01*
X9898Y9652D01*
X9898Y9650D01*
Y273D01*
X9893Y249D01*
X9897Y229D01*
X9892Y228D01*
X9898Y200D01*
X9887Y143D01*
X9855Y95D01*
X9807Y63D01*
X9750Y52D01*
X9722Y58D01*
X9721Y53D01*
X9701Y57D01*
X9677Y52D01*
X323D01*
X299Y57D01*
X279Y53D01*
X278Y58D01*
X250Y52D01*
X193Y63D01*
X145Y95D01*
X113Y143D01*
X102Y200D01*
X108Y228D01*
X149Y256D01*
X156Y257D01*
X170Y248D01*
X220Y238D01*
X909D01*
X959Y248D01*
X1002Y276D01*
X1030Y319D01*
X1040Y369D01*
Y526D01*
X1030Y577D01*
X1002Y619D01*
X959Y648D01*
X909Y658D01*
X220D01*
X170Y648D01*
X152Y636D01*
X102Y663D01*
Y2487D01*
X152Y2502D01*
X166Y2481D01*
X209Y2452D01*
X259Y2442D01*
X948D01*
X998Y2452D01*
X1041Y2481D01*
X1070Y2523D01*
X1080Y2574D01*
Y2731D01*
X1070Y2781D01*
X1067Y2785D01*
X1106Y2816D01*
X1397Y2525D01*
X1382Y2470D01*
X1343Y2444D01*
X1310Y2395D01*
X1299Y2337D01*
X1310Y2279D01*
X1343Y2230D01*
X1392Y2198D01*
X1450Y2186D01*
X1508Y2198D01*
X1557Y2230D01*
X1583Y2269D01*
X1638Y2285D01*
X1997Y1926D01*
Y1100D01*
X2009Y1041D01*
X2042Y992D01*
X2590Y444D01*
X2639Y411D01*
X2698Y399D01*
X2726D01*
Y305D01*
X3456D01*
Y796D01*
X3456Y799D01*
X3464Y846D01*
X3506D01*
Y1439D01*
X3464D01*
X3456Y1486D01*
X3456Y1489D01*
Y1529D01*
X3506Y1557D01*
X3550Y1549D01*
X3608Y1560D01*
X3657Y1593D01*
X3690Y1642D01*
X3701Y1700D01*
X3690Y1758D01*
X3657Y1807D01*
X3608Y1840D01*
X3550Y1851D01*
X3506Y1843D01*
X3456Y1871D01*
Y1980D01*
X2764D01*
X2711Y2033D01*
X2738Y2077D01*
X3456D01*
Y2222D01*
X3474D01*
X3513Y2229D01*
X3543Y2250D01*
X3550Y2249D01*
X3608Y2260D01*
X3657Y2293D01*
X3690Y2342D01*
X3701Y2400D01*
X3690Y2458D01*
X3657Y2507D01*
X3608Y2540D01*
X3550Y2551D01*
X3506Y2543D01*
X3456Y2570D01*
Y2570D01*
X2926D01*
X2875Y2621D01*
X2894Y2667D01*
X3456D01*
Y3161D01*
X2726D01*
Y2835D01*
X2680Y2816D01*
X2427Y3069D01*
Y4150D01*
X2525D01*
Y4550D01*
X2125D01*
Y4150D01*
X2223D01*
Y3855D01*
X2175Y3850D01*
X2173Y3850D01*
X1775D01*
Y3450D01*
X1873D01*
Y2625D01*
X1881Y2586D01*
X1903Y2553D01*
X2726Y1730D01*
Y1489D01*
X2726Y1486D01*
X2718Y1439D01*
X2676D01*
Y861D01*
X2630Y837D01*
X2303Y1163D01*
Y1989D01*
X2291Y2047D01*
X2258Y2097D01*
X1103Y3253D01*
X1096Y3257D01*
X751Y3602D01*
Y4386D01*
X778Y4390D01*
X853Y4421D01*
X917Y4470D01*
X966Y4534D01*
X996Y4608D01*
X1000Y4636D01*
X1563Y5199D01*
X1850D01*
Y5150D01*
X2250D01*
Y5550D01*
X1850D01*
Y5501D01*
X1500D01*
X1442Y5490D01*
X1393Y5457D01*
X1393Y5457D01*
X874Y4938D01*
X853Y4955D01*
X778Y4986D01*
X698Y4996D01*
X502D01*
X422Y4986D01*
X347Y4955D01*
X283Y4906D01*
X234Y4842D01*
X204Y4768D01*
X193Y4688D01*
X204Y4608D01*
X234Y4534D01*
X283Y4470D01*
X347Y4421D01*
X422Y4390D01*
X449Y4386D01*
Y3539D01*
X449Y3539D01*
X460Y3481D01*
X493Y3432D01*
X882Y3043D01*
X886Y3036D01*
X1034Y2889D01*
X1002Y2850D01*
X998Y2852D01*
X948Y2862D01*
X259D01*
X209Y2852D01*
X166Y2824D01*
X152Y2802D01*
X102Y2817D01*
Y6188D01*
X152Y6191D01*
X155Y6170D01*
X191Y6083D01*
X248Y6009D01*
X322Y5952D01*
X409Y5916D01*
X502Y5904D01*
X698D01*
X751Y5910D01*
X774Y5863D01*
X695Y5784D01*
X502D01*
X422Y5773D01*
X347Y5742D01*
X283Y5693D01*
X234Y5629D01*
X204Y5555D01*
X193Y5475D01*
X204Y5395D01*
X234Y5321D01*
X283Y5257D01*
X347Y5208D01*
X422Y5177D01*
X502Y5167D01*
X698D01*
X778Y5177D01*
X853Y5208D01*
X917Y5257D01*
X966Y5321D01*
X996Y5395D01*
X1007Y5475D01*
X996Y5555D01*
X966Y5628D01*
X1137Y5799D01*
X1850D01*
Y5750D01*
X2250D01*
Y5799D01*
X2726D01*
Y5620D01*
X3456D01*
Y6114D01*
X2726D01*
Y6101D01*
X2250D01*
Y6150D01*
X1850D01*
Y6101D01*
X1075D01*
X1075Y6101D01*
X1071Y6101D01*
X1035Y6144D01*
X1045Y6170D01*
X1057Y6263D01*
X1045Y6356D01*
X1009Y6442D01*
X952Y6516D01*
X878Y6573D01*
X791Y6609D01*
X698Y6622D01*
X502D01*
X409Y6609D01*
X322Y6573D01*
X248Y6516D01*
X191Y6442D01*
X155Y6356D01*
X152Y6334D01*
X102Y6337D01*
Y6976D01*
X152Y6979D01*
X155Y6957D01*
X191Y6871D01*
X248Y6796D01*
X322Y6739D01*
X409Y6703D01*
X502Y6691D01*
X698D01*
X791Y6703D01*
X878Y6739D01*
X952Y6796D01*
X1009Y6871D01*
X1045Y6957D01*
X1057Y7050D01*
X1045Y7143D01*
X1009Y7229D01*
X952Y7304D01*
X878Y7361D01*
X791Y7397D01*
X698Y7409D01*
X502D01*
X409Y7397D01*
X322Y7361D01*
X248Y7304D01*
X191Y7229D01*
X155Y7143D01*
X152Y7121D01*
X102Y7124D01*
Y9650D01*
X98Y9670D01*
X103Y9671D01*
X97Y9700D01*
X109Y9759D01*
X109Y9759D01*
X191Y9841D01*
X191Y9841D01*
X250Y9853D01*
X279Y9847D01*
X280Y9852D01*
X300Y9848D01*
X9700D01*
X9720Y9852D01*
X9721Y9847D01*
X9750Y9853D01*
X9809Y9841D01*
D02*
G37*
%LPC*%
G36*
X2450Y9690D02*
X2384Y9677D01*
X2329Y9640D01*
X2292Y9584D01*
X2279Y9518D01*
X2292Y9453D01*
X2329Y9397D01*
X2384Y9360D01*
X2450Y9347D01*
X2516Y9360D01*
X2571Y9397D01*
X2608Y9453D01*
X2621Y9518D01*
X2608Y9584D01*
X2571Y9640D01*
X2516Y9677D01*
X2450Y9690D01*
D02*
G37*
G36*
X9350Y9716D02*
X9234Y9700D01*
X9126Y9656D01*
X9034Y9585D01*
X8962Y9492D01*
X8918Y9384D01*
X8902Y9268D01*
X8918Y9152D01*
X8962Y9044D01*
X9034Y8952D01*
X9126Y8881D01*
X9234Y8836D01*
X9350Y8821D01*
X9466Y8836D01*
X9574Y8881D01*
X9666Y8952D01*
X9738Y9044D01*
X9782Y9152D01*
X9798Y9268D01*
X9782Y9384D01*
X9738Y9492D01*
X9666Y9585D01*
X9574Y9656D01*
X9466Y9700D01*
X9350Y9716D01*
D02*
G37*
G36*
X698Y9721D02*
X502D01*
X422Y9710D01*
X347Y9679D01*
X283Y9630D01*
X234Y9566D01*
X204Y9492D01*
X193Y9412D01*
X204Y9332D01*
X234Y9258D01*
X283Y9194D01*
X347Y9145D01*
X422Y9114D01*
X502Y9104D01*
X698D01*
X778Y9114D01*
X853Y9145D01*
X917Y9194D01*
X940Y9225D01*
X1006Y9230D01*
X1549Y8687D01*
Y8210D01*
X1531Y8198D01*
X1499Y8190D01*
X998Y8691D01*
X996Y8705D01*
X966Y8779D01*
X917Y8843D01*
X853Y8892D01*
X778Y8923D01*
X698Y8933D01*
X502D01*
X422Y8923D01*
X347Y8892D01*
X283Y8843D01*
X234Y8779D01*
X204Y8705D01*
X193Y8625D01*
X204Y8545D01*
X234Y8471D01*
X283Y8407D01*
X347Y8358D01*
X422Y8327D01*
X502Y8316D01*
X698D01*
X778Y8327D01*
X853Y8358D01*
X881Y8380D01*
X1249Y8012D01*
Y6850D01*
X1249Y6850D01*
X1260Y6792D01*
X1293Y6743D01*
X1686Y6350D01*
X1735Y6318D01*
X1793Y6306D01*
X1793Y6306D01*
X2726D01*
Y6211D01*
X3456D01*
Y6704D01*
X2726D01*
Y6609D01*
X1855D01*
X1551Y6913D01*
Y7415D01*
X1569Y7427D01*
X1601Y7435D01*
X2095Y6941D01*
X2095Y6941D01*
X2144Y6908D01*
X2202Y6897D01*
X2726D01*
Y6801D01*
X3456D01*
Y7295D01*
X2726D01*
Y7199D01*
X2265D01*
X1851Y7613D01*
Y8750D01*
X1840Y8808D01*
X1807Y8857D01*
X1807Y8857D01*
X1145Y9519D01*
X1096Y9552D01*
X1038Y9564D01*
X1038Y9564D01*
X967D01*
X966Y9566D01*
X917Y9630D01*
X853Y9679D01*
X778Y9710D01*
X698Y9721D01*
D02*
G37*
G36*
Y8146D02*
X502D01*
X422Y8135D01*
X347Y8105D01*
X283Y8056D01*
X234Y7992D01*
X204Y7917D01*
X193Y7837D01*
X204Y7758D01*
X234Y7683D01*
X283Y7619D01*
X347Y7570D01*
X422Y7539D01*
X502Y7529D01*
X698D01*
X778Y7539D01*
X853Y7570D01*
X917Y7619D01*
X966Y7683D01*
X996Y7758D01*
X1007Y7837D01*
X996Y7917D01*
X966Y7992D01*
X917Y8056D01*
X853Y8105D01*
X778Y8135D01*
X698Y8146D01*
D02*
G37*
G36*
X2450Y7721D02*
X2384Y7708D01*
X2329Y7671D01*
X2292Y7616D01*
X2279Y7550D01*
X2292Y7484D01*
X2329Y7429D01*
X2384Y7392D01*
X2450Y7379D01*
X2516Y7392D01*
X2571Y7429D01*
X2608Y7484D01*
X2621Y7550D01*
X2608Y7616D01*
X2571Y7671D01*
X2516Y7708D01*
X2450Y7721D01*
D02*
G37*
G36*
X2250Y8951D02*
X2192Y8940D01*
X2143Y8907D01*
X2110Y8858D01*
X2099Y8800D01*
X2110Y8742D01*
X2143Y8693D01*
X2192Y8660D01*
X2250Y8649D01*
X2266Y8652D01*
X2296Y8607D01*
X2292Y8600D01*
X2279Y8534D01*
X2292Y8469D01*
X2308Y8444D01*
X2309Y8441D01*
X2342Y8392D01*
X2391Y8359D01*
X2450Y8347D01*
X3287D01*
X4392Y7242D01*
X4441Y7209D01*
X4500Y7197D01*
X4559Y7209D01*
X4608Y7242D01*
X4641Y7291D01*
X4653Y7350D01*
X4641Y7409D01*
X4608Y7458D01*
X3458Y8608D01*
X3409Y8641D01*
X3375Y8648D01*
X3380Y8698D01*
X6415D01*
X7844Y7269D01*
Y6969D01*
X7798Y6950D01*
X7726Y7022D01*
X7693Y7044D01*
X7654Y7052D01*
X7086D01*
X7073Y7073D01*
X7016Y7110D01*
X6950Y7123D01*
X6884Y7110D01*
X6827Y7073D01*
X6790Y7016D01*
X6777Y6950D01*
X6790Y6884D01*
X6827Y6827D01*
X6884Y6790D01*
X6950Y6777D01*
X7016Y6790D01*
X7073Y6827D01*
X7086Y6848D01*
X7612D01*
X7844Y6616D01*
Y6211D01*
X8574D01*
Y6704D01*
X8044D01*
X7993Y6755D01*
X8012Y6801D01*
X8574D01*
Y7295D01*
X8106D01*
X6529Y8872D01*
X6496Y8894D01*
X6457Y8902D01*
X2360D01*
X2357Y8907D01*
X2308Y8940D01*
X2250Y8951D01*
D02*
G37*
G36*
X8574Y6114D02*
X7844D01*
Y5620D01*
X8574D01*
Y6114D01*
D02*
G37*
G36*
Y5523D02*
X7844D01*
Y5030D01*
X8574D01*
Y5523D01*
D02*
G37*
G36*
X3456Y5523D02*
X2726D01*
Y5030D01*
X3456D01*
Y5523D01*
D02*
G37*
G36*
X8574Y4933D02*
X7844D01*
Y4439D01*
X8574D01*
Y4933D01*
D02*
G37*
G36*
X3456Y4933D02*
X2726D01*
Y4439D01*
X3456D01*
Y4933D01*
D02*
G37*
G36*
X2025Y4600D02*
X1525D01*
Y4100D01*
X2025D01*
Y4600D01*
D02*
G37*
G36*
X8574Y4342D02*
X7844D01*
Y3848D01*
X8574D01*
Y4342D01*
D02*
G37*
G36*
X3456Y4342D02*
X2726D01*
Y3848D01*
X3456D01*
Y4342D01*
D02*
G37*
G36*
X3750Y4753D02*
X3691Y4741D01*
X3642Y4708D01*
X3609Y4659D01*
X3597Y4600D01*
X3609Y4541D01*
X3642Y4492D01*
X4392Y3742D01*
X4441Y3709D01*
X4500Y3697D01*
X4559Y3709D01*
X4608Y3742D01*
X4641Y3791D01*
X4653Y3850D01*
X4641Y3909D01*
X4608Y3958D01*
X3858Y4708D01*
X3809Y4741D01*
X3750Y4753D01*
D02*
G37*
G36*
X9350Y4648D02*
X9221Y4631D01*
X9101Y4581D01*
X8998Y4502D01*
X8919Y4399D01*
X8869Y4279D01*
X8852Y4150D01*
X8869Y4021D01*
X8919Y3901D01*
X8998Y3798D01*
X9101Y3719D01*
X9221Y3669D01*
X9350Y3652D01*
X9479Y3669D01*
X9599Y3719D01*
X9702Y3798D01*
X9781Y3901D01*
X9831Y4021D01*
X9848Y4150D01*
X9831Y4279D01*
X9781Y4399D01*
X9702Y4502D01*
X9599Y4581D01*
X9479Y4631D01*
X9350Y4648D01*
D02*
G37*
G36*
X1675Y3900D02*
X1175D01*
Y3400D01*
X1675D01*
Y3900D01*
D02*
G37*
G36*
X8574Y3752D02*
X7844D01*
Y3258D01*
X8574D01*
Y3752D01*
D02*
G37*
G36*
X3456D02*
X2726D01*
Y3258D01*
X3456D01*
Y3752D01*
D02*
G37*
G36*
X8574Y3161D02*
X7844D01*
Y2667D01*
X8574D01*
Y3161D01*
D02*
G37*
G36*
Y2570D02*
X7844D01*
Y2077D01*
X8574D01*
Y2570D01*
D02*
G37*
G36*
Y1980D02*
X7844D01*
Y1486D01*
X8574D01*
Y1980D01*
D02*
G37*
G36*
X9348Y1998D02*
X9152D01*
X9061Y1986D01*
X8977Y1952D01*
X8905Y1896D01*
X8850Y1824D01*
X8815Y1740D01*
X8803Y1650D01*
X8815Y1560D01*
X8850Y1476D01*
X8905Y1404D01*
X8977Y1348D01*
X9061Y1314D01*
X9152Y1302D01*
X9348D01*
X9439Y1314D01*
X9523Y1348D01*
X9595Y1404D01*
X9650Y1476D01*
X9685Y1560D01*
X9697Y1650D01*
X9685Y1740D01*
X9650Y1824D01*
X9595Y1896D01*
X9523Y1952D01*
X9439Y1986D01*
X9348Y1998D01*
D02*
G37*
G36*
X6550Y2725D02*
X6492Y2714D01*
X6443Y2681D01*
X6410Y2632D01*
X6399Y2574D01*
X6410Y2516D01*
X6419Y2503D01*
Y1397D01*
X6307Y1285D01*
X6292Y1282D01*
X6279Y1274D01*
X4093D01*
X4042Y1264D01*
X4000Y1235D01*
X3657Y893D01*
X3642Y890D01*
X3593Y857D01*
X3560Y808D01*
X3549Y750D01*
X3560Y692D01*
X3593Y643D01*
X3642Y610D01*
X3700Y599D01*
X3758Y610D01*
X3807Y643D01*
X3840Y692D01*
X3843Y707D01*
X4147Y1011D01*
X6279D01*
X6292Y1003D01*
X6350Y991D01*
X6408Y1003D01*
X6457Y1036D01*
X6490Y1085D01*
X6493Y1100D01*
X6643Y1250D01*
X6671Y1292D01*
X6681Y1343D01*
Y2503D01*
X6690Y2516D01*
X6701Y2574D01*
X6690Y2632D01*
X6657Y2681D01*
X6608Y2714D01*
X6550Y2725D01*
D02*
G37*
G36*
X8574Y1389D02*
X7844D01*
Y896D01*
X8574D01*
Y1389D01*
D02*
G37*
G36*
X1450Y914D02*
X1392Y902D01*
X1343Y870D01*
X1310Y821D01*
X1299Y763D01*
X1310Y705D01*
X1343Y656D01*
X1392Y623D01*
X1450Y611D01*
X1508Y623D01*
X1557Y656D01*
X1590Y705D01*
X1602Y763D01*
X1590Y821D01*
X1557Y870D01*
X1508Y902D01*
X1450Y914D01*
D02*
G37*
G36*
X8574Y799D02*
X7844D01*
Y305D01*
X8574D01*
Y799D01*
D02*
G37*
G36*
X9348Y1049D02*
X9152D01*
X9048Y1035D01*
X8952Y995D01*
X8870Y932D01*
X8806Y849D01*
X8766Y753D01*
X8753Y650D01*
X8766Y547D01*
X8806Y451D01*
X8870Y368D01*
X8952Y305D01*
X9048Y265D01*
X9152Y251D01*
X9348D01*
X9452Y265D01*
X9548Y305D01*
X9630Y368D01*
X9694Y451D01*
X9734Y547D01*
X9747Y650D01*
X9734Y753D01*
X9694Y849D01*
X9630Y932D01*
X9548Y995D01*
X9452Y1035D01*
X9348Y1049D01*
D02*
G37*
G36*
X7219Y879D02*
X7137Y868D01*
X7060Y836D01*
X6994Y786D01*
X6943Y719D01*
X6911Y643D01*
X6900Y560D01*
X6911Y477D01*
X6943Y401D01*
X6994Y334D01*
X7060Y284D01*
X7137Y252D01*
X7219Y241D01*
X7302Y252D01*
X7379Y284D01*
X7445Y334D01*
X7495Y401D01*
X7527Y477D01*
X7538Y560D01*
X7527Y643D01*
X7495Y719D01*
X7445Y786D01*
X7379Y836D01*
X7302Y868D01*
X7219Y879D01*
D02*
G37*
G36*
X6219D02*
X6137Y868D01*
X6060Y836D01*
X5994Y786D01*
X5943Y719D01*
X5911Y643D01*
X5900Y560D01*
X5911Y477D01*
X5943Y401D01*
X5994Y334D01*
X6060Y284D01*
X6137Y252D01*
X6219Y241D01*
X6302Y252D01*
X6379Y284D01*
X6445Y334D01*
X6495Y401D01*
X6527Y477D01*
X6538Y560D01*
X6527Y643D01*
X6495Y719D01*
X6445Y786D01*
X6379Y836D01*
X6302Y868D01*
X6219Y879D01*
D02*
G37*
G36*
X5219D02*
X5137Y868D01*
X5060Y836D01*
X4994Y786D01*
X4943Y719D01*
X4911Y643D01*
X4900Y560D01*
X4911Y477D01*
X4943Y401D01*
X4994Y334D01*
X5060Y284D01*
X5137Y252D01*
X5219Y241D01*
X5302Y252D01*
X5379Y284D01*
X5445Y334D01*
X5495Y401D01*
X5527Y477D01*
X5538Y560D01*
X5527Y643D01*
X5495Y719D01*
X5445Y786D01*
X5379Y836D01*
X5302Y868D01*
X5219Y879D01*
D02*
G37*
G36*
X4219Y879D02*
X4137Y868D01*
X4060Y836D01*
X3994Y786D01*
X3943Y719D01*
X3911Y643D01*
X3900Y560D01*
X3911Y477D01*
X3943Y401D01*
X3994Y334D01*
X4060Y284D01*
X4137Y252D01*
X4219Y241D01*
X4302Y252D01*
X4379Y284D01*
X4445Y334D01*
X4495Y401D01*
X4527Y477D01*
X4538Y560D01*
X4527Y643D01*
X4495Y719D01*
X4445Y786D01*
X4379Y836D01*
X4302Y868D01*
X4219Y879D01*
D02*
G37*
%LPD*%
D14*
X6950Y6950D02*
X7654D01*
X8146Y6457D01*
X8209D01*
X550Y5450D02*
X600D01*
X2867Y1733D02*
X3091D01*
X1975Y2625D02*
X2867Y1733D01*
X1975Y2625D02*
Y3650D01*
X2250Y8800D02*
X6457D01*
X2325Y3027D02*
X3028Y2324D01*
X2325Y3027D02*
Y4350D01*
X3028Y2324D02*
X3091D01*
X3474D01*
X3550Y2400D01*
X3124Y1700D02*
X3550D01*
X3091Y1733D02*
X3124Y1700D01*
X6457Y8800D02*
X8209Y7048D01*
D16*
X1425Y3650D02*
D03*
X1975D02*
D03*
X1775Y4350D02*
D03*
X2325D02*
D03*
D17*
X2050Y5950D02*
D03*
Y5350D02*
D03*
D18*
X3091Y552D02*
D03*
Y4686D02*
D03*
Y5276D02*
D03*
Y5867D02*
D03*
Y6457D02*
D03*
Y7048D02*
D03*
Y2324D02*
D03*
Y1733D02*
D03*
Y4095D02*
D03*
Y3505D02*
D03*
Y2914D02*
D03*
X8209Y552D02*
D03*
Y1143D02*
D03*
Y1733D02*
D03*
Y2324D02*
D03*
Y2914D02*
D03*
Y3505D02*
D03*
Y4095D02*
D03*
Y4686D02*
D03*
Y5276D02*
D03*
Y5867D02*
D03*
Y6457D02*
D03*
Y7048D02*
D03*
X3091Y1143D02*
D03*
D28*
X2450Y8500D02*
X3350D01*
X3750Y4600D02*
X4500Y3850D01*
X994Y3144D02*
X2150Y1989D01*
X3350Y8500D02*
X4500Y7350D01*
X2698Y552D02*
X3091D01*
X2150Y1100D02*
X2698Y552D01*
X2150Y1100D02*
Y1989D01*
X2450Y8500D02*
Y8534D01*
D29*
X2202Y7048D02*
X3091D01*
X1700Y7550D02*
X2202Y7048D01*
X1700Y7550D02*
Y8750D01*
X1038Y9412D02*
X1700Y8750D01*
X600Y9412D02*
X1038D01*
X1793Y6457D02*
X3091D01*
X1400Y6850D02*
Y8075D01*
Y6850D02*
X1793Y6457D01*
X850Y8625D02*
X1400Y8075D01*
X600Y8625D02*
X850D01*
X2050Y5950D02*
X3008D01*
X1075D02*
X2050D01*
X3008D02*
X3091Y5867D01*
X600Y5475D02*
X1075Y5950D01*
X1500Y5350D02*
X2050D01*
X838Y4688D02*
X1500Y5350D01*
X600Y4688D02*
X838D01*
X600Y3539D02*
X994Y3144D01*
X600Y3539D02*
Y4688D01*
D30*
X4093Y1143D02*
X6350D01*
X3700Y750D02*
X4093Y1143D01*
X6550Y1343D02*
Y2574D01*
X6350Y1143D02*
X6550Y1343D01*
D31*
X1450Y2337D02*
D03*
Y763D02*
D03*
X250Y3750D02*
D03*
X2050Y4800D02*
D03*
X5400Y5150D02*
D03*
X5350Y6700D02*
D03*
X2400Y2600D02*
D03*
X4500Y3850D02*
D03*
X3750Y4600D02*
D03*
X4500Y7350D02*
D03*
X6550Y2574D02*
D03*
X6350Y1143D02*
D03*
X3700Y750D02*
D03*
X2250Y8800D02*
D03*
X3550Y2400D02*
D03*
Y1700D02*
D03*
D32*
X564Y448D02*
D03*
X604Y2652D02*
D03*
D33*
X9350Y4150D02*
D03*
Y9268D02*
D03*
D34*
X2450Y7550D02*
D03*
Y8534D02*
D03*
Y9518D02*
D03*
D35*
X9250Y650D02*
D03*
Y1650D02*
D03*
D36*
X600Y4688D02*
D03*
D03*
Y5475D02*
D03*
Y6263D02*
D03*
Y7050D02*
D03*
Y7837D02*
D03*
Y8625D02*
D03*
Y9412D02*
D03*
D37*
X6950Y6950D02*
D03*
X7550Y2150D02*
D03*
X2450Y150D02*
D03*
X9650Y3250D02*
D03*
X9000Y3150D02*
D03*
X5850Y5500D02*
D03*
X4700Y9550D02*
D03*
X7219Y8850D02*
D03*
X5850Y9650D02*
D03*
X2800Y9050D02*
D03*
X4700Y8050D02*
D03*
X4450Y2200D02*
D03*
X9800Y2350D02*
D03*
X8850Y1100D02*
D03*
X250Y1600D02*
D03*
X8600Y8950D02*
D03*
X5000Y4550D02*
D03*
X6700Y300D02*
D03*
X5850Y5050D02*
D03*
X1950Y9600D02*
D03*
X7250Y9650D02*
D03*
X9400Y2850D02*
D03*
M02*
