M48
;Layer_Color=9474304
;FILE_FORMAT=2:5
INCH,LZ
;TYPE=PLATED
T1F00S00C0.01181
T2F00S00C0.01200
T4F00S00C0.02362
T5F00S00C0.03300
T6F00S00C0.03937
;TYPE=NON_PLATED
T7F00S00C0.01968
%
T01
X0037Y00075
X00355Y0017
Y0024
X00635Y0011425
X00025Y00375
X00205Y0048
X00375Y0046
X0045Y00385
X0054Y00515
X00535Y0067
X0045Y00735
X00225Y0088
X0024Y0026
X00655Y002574
T02
X00245Y00015
X00445Y0022
X00755Y00215
X00885Y0011
X0098Y00235
X0067Y0003
X00025Y0016
X005Y00455
X00585Y00505
Y0055
X00695Y00695
X0072191Y00885
X00725Y00965
X00585
X0047Y00955
Y00805
X0028Y00905
X00195Y0096
X0086Y00895
X009Y00315
X0094Y00285
X00965Y00325
T04
X00245Y00755
Y0085343
Y0095185
T05
X00925Y00065
Y00165
X0006Y0046878
Y0054752
Y0062626
Y00705
Y0078374
Y0086248
Y0094122
T06
X00935Y00415
Y0092681
T07
X0014502Y0007626
Y0023374
M30
