G04*
G04 #@! TF.GenerationSoftware,Altium Limited,Altium Designer,18.1.9 (240)*
G04*
G04 Layer_Color=16711935*
%FSLAX24Y24*%
%MOIN*%
G70*
G01*
G75*
%ADD12C,0.0060*%
%ADD14C,0.0100*%
D12*
X-2040Y3890D02*
Y3490D01*
X-2440Y3890D01*
X-2540D01*
X-2640Y3790D01*
Y3590D01*
X-2540Y3490D01*
X-2640Y4490D02*
Y4090D01*
X-2340D01*
X-2440Y4290D01*
Y4390D01*
X-2340Y4490D01*
X-2140D01*
X-2040Y4390D01*
Y4190D01*
X-2140Y4090D01*
X-2040Y4690D02*
X-2140D01*
Y4790D01*
X-2040D01*
Y4690D01*
Y5190D02*
Y5390D01*
Y5290D01*
X-2640D01*
X-2540Y5190D01*
X-2640Y6090D02*
Y5690D01*
X-2340D01*
X-2440Y5890D01*
Y5990D01*
X-2340Y6090D01*
X-2140D01*
X-2040Y5990D01*
Y5790D01*
X-2140Y5690D01*
X3940Y11190D02*
X3540D01*
X3940Y11590D01*
Y11690D01*
X3840Y11790D01*
X3640D01*
X3540Y11690D01*
X4540Y11790D02*
X4140D01*
Y11490D01*
X4340Y11590D01*
X4440D01*
X4540Y11490D01*
Y11290D01*
X4440Y11190D01*
X4240D01*
X4140Y11290D01*
X4740Y11190D02*
Y11290D01*
X4840D01*
Y11190D01*
X4740D01*
X5240D02*
X5440D01*
X5340D01*
Y11790D01*
X5240Y11690D01*
X6140Y11790D02*
X5740D01*
Y11490D01*
X5940Y11590D01*
X6040D01*
X6140Y11490D01*
Y11290D01*
X6040Y11190D01*
X5840D01*
X5740Y11290D01*
D14*
X-2400Y9900D02*
X-2200Y9300D01*
X-2600D02*
X-2400Y9900D01*
X-2600Y600D02*
X-2400Y0D01*
X-2200Y600D01*
X-2400Y6250D02*
Y9900D01*
Y0D02*
Y3330D01*
X-2500Y9900D02*
X-950D01*
X-2400Y-100D02*
Y100D01*
X9350Y11350D02*
X9950Y11550D01*
X9350Y11750D02*
X9950Y11550D01*
X50D02*
X650Y11750D01*
X50Y11550D02*
X650Y11350D01*
X6300Y11550D02*
X9950D01*
X50D02*
X3380D01*
X9950Y11100D02*
Y11650D01*
X50Y10950D02*
Y11650D01*
M02*
