G04*
G04 #@! TF.GenerationSoftware,Altium Limited,Altium Designer,18.1.9 (240)*
G04*
G04 Layer_Color=65535*
%FSLAX24Y24*%
%MOIN*%
G70*
G01*
G75*
%ADD10C,0.0080*%
%ADD11C,0.0050*%
%ADD12C,0.0060*%
%ADD13C,0.0098*%
%ADD14C,0.0100*%
%ADD15C,0.0039*%
D10*
X1119Y3759D02*
X1210Y3850D01*
X2189Y3440D02*
Y3860D01*
X1219D02*
X2189D01*
X1219Y3440D02*
Y3850D01*
Y3440D02*
X2189D01*
X1119Y3531D02*
X1219Y3440D01*
X1119Y3531D02*
Y3759D01*
X1469Y4459D02*
X1560Y4550D01*
X2539Y4140D02*
Y4560D01*
X1569D02*
X2539D01*
X1569Y4140D02*
Y4550D01*
Y4140D02*
X2539D01*
X1469Y4231D02*
X1569Y4140D01*
X1469Y4231D02*
Y4459D01*
D11*
X1000Y3830D02*
X1080D01*
X1040Y3780D02*
Y3880D01*
X1350Y4530D02*
X1430D01*
X1390Y4480D02*
Y4580D01*
D12*
X2300Y5800D02*
Y6200D01*
X1800Y5800D02*
Y6200D01*
Y5100D02*
Y5500D01*
X2300Y5100D02*
Y5500D01*
X1800Y6200D02*
X2300D01*
X1800Y5100D02*
X2300D01*
X3617Y9346D02*
X4407D01*
Y8566D02*
Y9346D01*
Y8566D02*
X5197D01*
Y9336D01*
X5977D01*
Y8566D02*
Y9336D01*
Y8566D02*
X6777D01*
Y9346D01*
X7547D01*
X7557Y9336D01*
Y7676D02*
Y9336D01*
X3091Y60D02*
X8209D01*
X3091Y9902D02*
X8209D01*
X8210Y60D02*
Y9903D01*
X3090Y60D02*
Y9903D01*
D13*
X9941Y3559D02*
Y9859D01*
X8759Y3559D02*
X9941D01*
X8759D02*
Y9859D01*
X8956D01*
X9941D01*
D14*
X8958Y193D02*
X9475D01*
X8778Y2122D02*
X9734D01*
X8778Y193D02*
Y2122D01*
X9734Y193D02*
Y2122D01*
X8778Y193D02*
X8958D01*
X9475D02*
X9734D01*
X116Y4294D02*
Y9806D01*
X1151Y4294D02*
Y9806D01*
X116Y4294D02*
X1151D01*
X116Y9806D02*
X1151D01*
D15*
X1320Y5239D02*
Y5436D01*
X1419D01*
X1451Y5403D01*
Y5338D01*
X1419Y5305D01*
X1320D01*
X1386D02*
X1451Y5239D01*
X1517Y5403D02*
X1550Y5436D01*
X1615D01*
X1648Y5403D01*
Y5371D01*
X1615Y5338D01*
X1583D01*
X1615D01*
X1648Y5305D01*
Y5272D01*
X1615Y5239D01*
X1550D01*
X1517Y5272D01*
X550Y3766D02*
Y3569D01*
X648D01*
X681Y3602D01*
Y3733D01*
X648Y3766D01*
X550D01*
X747Y3733D02*
X780Y3766D01*
X845D01*
X878Y3733D01*
Y3700D01*
X845Y3667D01*
X812D01*
X845D01*
X878Y3635D01*
Y3602D01*
X845Y3569D01*
X780D01*
X747Y3602D01*
X1339Y4940D02*
Y4743D01*
X1438D01*
X1471Y4776D01*
Y4907D01*
X1438Y4940D01*
X1339D01*
X1635Y4743D02*
Y4940D01*
X1536Y4842D01*
X1667D01*
X1481Y9335D02*
X1416D01*
X1448D01*
Y9171D01*
X1416Y9138D01*
X1383D01*
X1350Y9171D01*
X1547Y9138D02*
X1612D01*
X1580D01*
Y9335D01*
X1547Y9302D01*
X9081Y2597D02*
X9016D01*
X9048D01*
Y2433D01*
X9016Y2400D01*
X8983D01*
X8950Y2433D01*
X9278Y2400D02*
X9147D01*
X9278Y2531D01*
Y2564D01*
X9245Y2597D01*
X9180D01*
X9147Y2564D01*
X8531Y9714D02*
X8498Y9747D01*
X8433D01*
X8400Y9714D01*
Y9681D01*
X8433Y9648D01*
X8498D01*
X8531Y9616D01*
Y9583D01*
X8498Y9550D01*
X8433D01*
X8400Y9583D01*
X8597Y9550D02*
X8662D01*
X8630D01*
Y9747D01*
X8597Y9714D01*
X3900Y9650D02*
Y9847D01*
X3966Y9781D01*
X4031Y9847D01*
Y9650D01*
X4097D02*
X4162D01*
X4130D01*
Y9847D01*
X4097Y9814D01*
M02*
