G04*
G04 #@! TF.GenerationSoftware,Altium Limited,Altium Designer,18.1.9 (240)*
G04*
G04 Layer_Color=32896*
%FSLAX24Y24*%
%MOIN*%
G70*
G01*
G75*
%ADD10C,0.0080*%
%ADD11C,0.0050*%
%ADD12C,0.0060*%
%ADD13C,0.0098*%
%ADD14C,0.0100*%
%ADD15C,0.0039*%
%ADD54C,0.0236*%
%ADD55C,0.0060*%
%ADD56C,0.0079*%
D10*
X4870Y7280D02*
X6272D01*
X4870Y4720D02*
Y7280D01*
X6272Y4720D02*
Y7280D01*
X4870Y4720D02*
X6272D01*
D11*
X4550Y7650D02*
Y7950D01*
X4450Y8050D02*
X4550Y7950D01*
X4150Y8050D02*
X4450D01*
X4150Y7550D02*
X4450D01*
X4550Y7650D01*
X3450D02*
Y7950D01*
X3550Y8050D01*
X3850D01*
X3550Y7550D02*
X3850D01*
X3450Y7650D02*
X3550Y7550D01*
X7100Y4469D02*
X7400D01*
X7000Y4369D02*
X7100Y4469D01*
X7000Y4069D02*
Y4369D01*
X7500Y4069D02*
Y4369D01*
X7400Y4469D02*
X7500Y4369D01*
X7100Y3369D02*
X7400D01*
X7000Y3469D02*
X7100Y3369D01*
X7000Y3469D02*
Y3769D01*
X7500Y3469D02*
Y3769D01*
X7400Y3369D02*
X7500Y3469D01*
X8300Y9518D02*
X8400Y9418D01*
X8000Y9518D02*
X8300D01*
X8000Y9018D02*
X8300D01*
X8400Y9118D01*
Y9418D01*
X7300D02*
X7400Y9518D01*
X7700D01*
X7400Y9018D02*
X7700D01*
X7300Y9118D02*
X7400Y9018D01*
X7300Y9118D02*
Y9418D01*
X1750Y6850D02*
X1850Y6950D01*
X1750Y6550D02*
Y6850D01*
X2250Y6550D02*
Y6850D01*
X2150Y6950D02*
X2250Y6850D01*
X1850Y6950D02*
X2150D01*
X1750Y5950D02*
X1850Y5850D01*
X1750Y5950D02*
Y6250D01*
X2250Y5950D02*
Y6250D01*
X2150Y5850D02*
X2250Y5950D01*
X1850Y5850D02*
X2150D01*
X6800Y2700D02*
X6900Y2800D01*
X6800Y2400D02*
Y2700D01*
X7300Y2400D02*
Y2700D01*
X7200Y2800D02*
X7300Y2700D01*
X6900Y2800D02*
X7200D01*
X6800Y1800D02*
X6900Y1700D01*
X6800Y1800D02*
Y2100D01*
X7300Y1800D02*
Y2100D01*
X7200Y1700D02*
X7300Y1800D01*
X6900Y1700D02*
X7200D01*
X4700Y3700D02*
X4800Y3600D01*
X4400Y3700D02*
X4700D01*
X4400Y3200D02*
X4700D01*
X4800Y3300D01*
Y3600D01*
X3700D02*
X3800Y3700D01*
X4100D01*
X3800Y3200D02*
X4100D01*
X3700Y3300D02*
X3800Y3200D01*
X3700Y3300D02*
Y3600D01*
X6450Y4350D02*
X6550Y4450D01*
X6450Y4050D02*
Y4350D01*
X6950Y4050D02*
Y4350D01*
X6850Y4450D02*
X6950Y4350D01*
X6550Y4450D02*
X6850D01*
X6450Y3450D02*
X6550Y3350D01*
X6450Y3450D02*
Y3750D01*
X6950Y3450D02*
Y3750D01*
X6850Y3350D02*
X6950Y3450D01*
X6550Y3350D02*
X6850D01*
X6150Y3700D02*
X6250Y3600D01*
X5850Y3700D02*
X6150D01*
X5850Y3200D02*
X6150D01*
X6250Y3300D01*
Y3600D01*
X5150D02*
X5250Y3700D01*
X5550D01*
X5250Y3200D02*
X5550D01*
X5150Y3300D02*
X5250Y3200D01*
X5150Y3300D02*
Y3600D01*
D12*
X-246Y74D02*
X1821D01*
X-246Y3026D02*
X1821D01*
X5100Y900D02*
Y1400D01*
X6200Y900D02*
Y1400D01*
X5100D02*
X5500D01*
X5100Y900D02*
X5500D01*
X5800D02*
X6200D01*
X5800Y1400D02*
X6200D01*
X7350Y5750D02*
X7850D01*
X7350Y4650D02*
X7850D01*
Y5350D02*
Y5750D01*
X7350Y5350D02*
Y5750D01*
Y4650D02*
Y5050D01*
X7850Y4650D02*
Y5050D01*
X8750Y4650D02*
X9250D01*
X8750Y5300D02*
Y5800D01*
X9250Y4650D02*
Y5050D01*
X8750Y4650D02*
Y5050D01*
Y5700D02*
X9250D01*
Y5300D02*
Y5800D01*
X8750D02*
X9250D01*
X8450Y5900D02*
Y6400D01*
X7350Y5900D02*
Y6400D01*
X8050Y5900D02*
X8450D01*
X8050Y6400D02*
X8450D01*
X7350D02*
X7750D01*
X7350Y5900D02*
X7750D01*
X9900Y5975D02*
Y6475D01*
X8800Y5975D02*
Y6475D01*
X9500Y5975D02*
X9900D01*
X9500Y6475D02*
X9900D01*
X8800D02*
X9200D01*
X8800Y5975D02*
X9200D01*
X4600Y8550D02*
Y9050D01*
X4100Y8550D02*
X4600D01*
X4500D02*
Y9050D01*
X3450D02*
X3850D01*
X3450Y8550D02*
X3850D01*
X4100Y9050D02*
X4600D01*
X3450Y8550D02*
Y9050D01*
X4969Y8250D02*
Y8650D01*
X5469Y8250D02*
Y8650D01*
Y7550D02*
Y7950D01*
X4969Y7550D02*
Y7950D01*
Y8650D02*
X5469D01*
X4969Y7550D02*
X5469D01*
X7250Y1350D02*
X7650D01*
X7250Y850D02*
X7650D01*
X6550D02*
X6950D01*
X6550Y1350D02*
X6950D01*
X7650Y850D02*
Y1350D01*
X6550Y850D02*
Y1350D01*
X3650Y900D02*
X4050D01*
X3650Y1400D02*
X4050D01*
X4350D02*
X4750D01*
X4350Y900D02*
X4750D01*
X3650D02*
Y1400D01*
X4750Y900D02*
Y1400D01*
X3800Y2850D02*
X4300D01*
Y2350D02*
Y2850D01*
X3800Y2750D02*
X4300D01*
X3800Y1700D02*
Y2100D01*
X4300Y1700D02*
Y2100D01*
X3800Y2350D02*
Y2850D01*
Y1700D02*
X4300D01*
X6450Y9250D02*
Y9650D01*
X6950Y9250D02*
Y9650D01*
Y8550D02*
Y8950D01*
X6450Y8550D02*
Y8950D01*
Y9650D02*
X6950D01*
X6450Y8550D02*
X6950D01*
X5600Y8250D02*
Y8650D01*
X6100Y8250D02*
Y8650D01*
Y7550D02*
Y7950D01*
X5600Y7550D02*
Y7950D01*
Y8650D02*
X6100D01*
X5600Y7550D02*
X6100D01*
D13*
X4988Y1491D02*
G03*
X4988Y1491I-49J0D01*
G01*
X7476Y6615D02*
G03*
X7476Y6615I-49J0D01*
G01*
D14*
X1702Y6959D02*
X3119D01*
X1702D02*
Y9873D01*
X3119Y6959D02*
Y9873D01*
X1702D02*
X3119D01*
D15*
X4369Y8364D02*
X4402Y8397D01*
X4467D01*
X4500Y8364D01*
Y8233D01*
X4467Y8200D01*
X4402D01*
X4369Y8233D01*
X4172Y8397D02*
X4303D01*
Y8298D01*
X4238Y8331D01*
X4205D01*
X4172Y8298D01*
Y8233D01*
X4205Y8200D01*
X4270D01*
X4303Y8233D01*
X1953Y364D02*
Y469D01*
X2006Y416D02*
X1901D01*
X1544Y9420D02*
Y9354D01*
X1512Y9322D01*
X1380D01*
X1348Y9354D01*
Y9420D01*
X1380Y9453D01*
X1512D01*
X1544Y9420D01*
Y9650D02*
Y9518D01*
X1446D01*
Y9584D01*
Y9518D01*
X1348D01*
X1544Y9846D02*
Y9715D01*
X1446D01*
Y9781D01*
Y9715D01*
X1348D01*
X2489Y8613D02*
X2424D01*
X2457D01*
Y8416D01*
X2489D01*
X2424D01*
X1505Y7274D02*
X1341D01*
X1308Y7307D01*
Y7373D01*
X1341Y7406D01*
X1505D01*
X1308Y7471D02*
X1505D01*
Y7570D01*
X1472Y7602D01*
X1407D01*
X1374Y7570D01*
Y7471D01*
X7040Y7757D02*
Y7593D01*
X7007Y7560D01*
X6942D01*
X6909Y7593D01*
Y7757D01*
X6843Y7724D02*
X6810Y7757D01*
X6745D01*
X6712Y7724D01*
Y7691D01*
X6745Y7658D01*
X6778D01*
X6745D01*
X6712Y7626D01*
Y7593D01*
X6745Y7560D01*
X6810D01*
X6843Y7593D01*
X8259Y9944D02*
X8292Y9977D01*
X8357D01*
X8390Y9944D01*
Y9813D01*
X8357Y9780D01*
X8292D01*
X8259Y9813D01*
X8193Y9780D02*
X8128D01*
X8160D01*
Y9977D01*
X8193Y9944D01*
X7669Y2657D02*
X7702Y2690D01*
X7767D01*
X7800Y2657D01*
Y2526D01*
X7767Y2493D01*
X7702D01*
X7669Y2526D01*
X7472Y2493D02*
X7603D01*
X7472Y2624D01*
Y2657D01*
X7505Y2690D01*
X7570D01*
X7603Y2657D01*
X3381Y3745D02*
X3348Y3712D01*
X3283D01*
X3250Y3745D01*
Y3876D01*
X3283Y3909D01*
X3348D01*
X3381Y3876D01*
X3447Y3745D02*
X3480Y3712D01*
X3545D01*
X3578Y3745D01*
Y3777D01*
X3545Y3810D01*
X3512D01*
X3545D01*
X3578Y3843D01*
Y3876D01*
X3545Y3909D01*
X3480D01*
X3447Y3876D01*
X5313Y4014D02*
X5346Y4047D01*
X5412D01*
X5445Y4014D01*
Y3883D01*
X5412Y3850D01*
X5346D01*
X5313Y3883D01*
X5149Y3850D02*
Y4047D01*
X5248Y3948D01*
X5117D01*
X2619Y6498D02*
X2652Y6530D01*
X2717D01*
X2750Y6498D01*
Y6366D01*
X2717Y6334D01*
X2652D01*
X2619Y6366D01*
X2422Y6530D02*
X2488Y6498D01*
X2553Y6432D01*
Y6366D01*
X2520Y6334D01*
X2455D01*
X2422Y6366D01*
Y6399D01*
X2455Y6432D01*
X2553D01*
X7969Y4155D02*
X8002Y4188D01*
X8067D01*
X8100Y4155D01*
Y4024D01*
X8067Y3991D01*
X8002D01*
X7969Y4024D01*
X7903Y4188D02*
X7772D01*
Y4155D01*
X7903Y4024D01*
Y3991D01*
X6119Y4164D02*
X6152Y4197D01*
X6217D01*
X6250Y4164D01*
Y4033D01*
X6217Y4000D01*
X6152D01*
X6119Y4033D01*
X6053Y4164D02*
X6020Y4197D01*
X5955D01*
X5922Y4164D01*
Y4131D01*
X5955Y4098D01*
X5922Y4066D01*
Y4033D01*
X5955Y4000D01*
X6020D01*
X6053Y4033D01*
Y4066D01*
X6020Y4098D01*
X6053Y4131D01*
Y4164D01*
X6020Y4098D02*
X5955D01*
X9550Y5840D02*
Y5643D01*
X9452D01*
X9419Y5676D01*
Y5807D01*
X9452Y5840D01*
X9550D01*
X9353Y5643D02*
X9288D01*
X9320D01*
Y5840D01*
X9353Y5807D01*
X4250Y3147D02*
Y2950D01*
X4152D01*
X4119Y2983D01*
Y3114D01*
X4152Y3147D01*
X4250D01*
X3922Y2950D02*
X4053D01*
X3922Y3081D01*
Y3114D01*
X3955Y3147D01*
X4020D01*
X4053Y3114D01*
X4590Y9517D02*
Y9320D01*
X4492D01*
X4459Y9353D01*
Y9484D01*
X4492Y9517D01*
X4590D01*
X4262D02*
X4393D01*
Y9418D01*
X4328Y9451D01*
X4295D01*
X4262Y9418D01*
Y9353D01*
X4295Y9320D01*
X4360D01*
X4393Y9353D01*
X2269Y3059D02*
X2334D01*
X2302D01*
Y2895D01*
X2334Y2862D01*
X2367D01*
X2400Y2895D01*
X2203Y3026D02*
X2170Y3059D01*
X2105D01*
X2072Y3026D01*
Y2994D01*
X2105Y2961D01*
X2138D01*
X2105D01*
X2072Y2928D01*
Y2895D01*
X2105Y2862D01*
X2170D01*
X2203Y2895D01*
X3500Y9747D02*
Y9550D01*
Y9616D01*
X3369Y9747D01*
X3467Y9648D01*
X3369Y9550D01*
X3303D02*
X3238D01*
X3270D01*
Y9747D01*
X3303Y9714D01*
X8600Y6500D02*
Y6697D01*
X8502D01*
X8469Y6664D01*
Y6598D01*
X8502Y6566D01*
X8600D01*
X8534D02*
X8469Y6500D01*
X8403D02*
X8338D01*
X8370D01*
Y6697D01*
X8403Y6664D01*
X8300Y5300D02*
Y5497D01*
X8202D01*
X8169Y5464D01*
Y5398D01*
X8202Y5366D01*
X8300D01*
X8234D02*
X8169Y5300D01*
X7972D02*
X8103D01*
X7972Y5431D01*
Y5464D01*
X8005Y5497D01*
X8070D01*
X8103Y5464D01*
X9452Y6550D02*
Y6747D01*
X9353D01*
X9320Y6714D01*
Y6648D01*
X9353Y6616D01*
X9452D01*
X9386D02*
X9320Y6550D01*
X9156D02*
Y6747D01*
X9255Y6648D01*
X9124D01*
X6050Y8923D02*
Y9120D01*
X5952D01*
X5919Y9087D01*
Y9021D01*
X5952Y8988D01*
X6050D01*
X5984D02*
X5919Y8923D01*
X5722Y9120D02*
X5853D01*
Y9021D01*
X5788Y9054D01*
X5755D01*
X5722Y9021D01*
Y8956D01*
X5755Y8923D01*
X5820D01*
X5853Y8956D01*
X6350Y9550D02*
Y9747D01*
X6252D01*
X6219Y9714D01*
Y9648D01*
X6252Y9616D01*
X6350D01*
X6284D02*
X6219Y9550D01*
X6153Y9714D02*
X6120Y9747D01*
X6055D01*
X6022Y9714D01*
Y9681D01*
X6055Y9648D01*
X6022Y9616D01*
Y9583D01*
X6055Y9550D01*
X6120D01*
X6153Y9583D01*
Y9616D01*
X6120Y9648D01*
X6153Y9681D01*
Y9714D01*
X6120Y9648D02*
X6055D01*
X7800Y1500D02*
Y1697D01*
X7702D01*
X7669Y1664D01*
Y1598D01*
X7702Y1566D01*
X7800D01*
X7734D02*
X7669Y1500D01*
X7603Y1533D02*
X7570Y1500D01*
X7505D01*
X7472Y1533D01*
Y1664D01*
X7505Y1697D01*
X7570D01*
X7603Y1664D01*
Y1631D01*
X7570Y1598D01*
X7472D01*
X6339Y1456D02*
Y1653D01*
X6241D01*
X6208Y1620D01*
Y1554D01*
X6241Y1521D01*
X6339D01*
X6274D02*
X6208Y1456D01*
X6143D02*
X6077D01*
X6110D01*
Y1653D01*
X6143Y1620D01*
X5979D02*
X5946Y1653D01*
X5880D01*
X5847Y1620D01*
Y1489D01*
X5880Y1456D01*
X5946D01*
X5979Y1489D01*
Y1620D01*
X3450Y1080D02*
Y1277D01*
X3352D01*
X3319Y1244D01*
Y1178D01*
X3352Y1145D01*
X3450D01*
X3384D02*
X3319Y1080D01*
X3253D02*
X3188D01*
X3220D01*
Y1277D01*
X3253Y1244D01*
X3089Y1080D02*
X3024D01*
X3056D01*
Y1277D01*
X3089Y1244D01*
X5455Y8911D02*
Y9108D01*
X5357D01*
X5324Y9075D01*
Y9010D01*
X5357Y8977D01*
X5455D01*
X5390D02*
X5324Y8911D01*
X5258D02*
X5193D01*
X5226D01*
Y9108D01*
X5258Y9075D01*
X4963Y8911D02*
X5095D01*
X4963Y9042D01*
Y9075D01*
X4996Y9108D01*
X5062D01*
X5095Y9075D01*
X9930Y9227D02*
Y9063D01*
X9897Y9030D01*
X9832D01*
X9799Y9063D01*
Y9227D01*
X9733Y9030D02*
X9668D01*
X9700D01*
Y9227D01*
X9733Y9194D01*
X6450Y3144D02*
Y2980D01*
X6417Y2947D01*
X6352D01*
X6319Y2980D01*
Y3144D01*
X6122Y2947D02*
X6253D01*
X6122Y3078D01*
Y3111D01*
X6155Y3144D01*
X6220D01*
X6253Y3111D01*
D54*
X8382Y7109D02*
G03*
X8382Y7109I-118J0D01*
G01*
D55*
X-246Y74D02*
Y3026D01*
X1821Y74D02*
Y864D01*
Y2227D02*
Y3026D01*
D56*
X5697Y1590D02*
Y2810D01*
X5303Y1590D02*
Y2810D01*
X5697D01*
X5303Y1590D02*
X5697D01*
X7870Y6716D02*
Y8684D01*
X9130Y6716D02*
Y8684D01*
X7870Y6716D02*
X9130D01*
X7870Y8684D02*
X9130D01*
M02*
